<svg width="370" height="200" viewBox="0 0 313 84" fill="none" xmlns="http://www.w3.org/2000/svg">
<path d="M32.1729 40.2049L45.3785 2.262H39.4605V0.818481H51.0703V2.262H47.5006L29.216 54.6977H22.8414L3.48749 2.27845H0V0.834923H24.8114V2.27845H19.4238L32.1729 40.2049Z" fill="white"/>
<path d="M55.0142 0.834839H82.3342V2.50456H74.2899V52.2877H77.0207C81.3225 52.2877 84.7497 50.9716 87.3022 48.3396C89.8548 45.7075 92.4485 41.6607 95.0833 36.1991H96.6749L95.2354 53.9574H55.0142V52.2877H59.4928V2.52513H55.0142V0.834839Z" fill="white"/>
<path d="M133.327 52.514L127.787 36.1211H112.764L106.92 52.514H112.611V53.9575H101.001V52.514H104.567L123.917 0.382568H130.139L149.263 52.514H152.754V53.9575H127.939V52.514H133.327ZM120.577 14.5711L113.459 34.4473H127.195L120.577 14.5711Z" fill="white"/>
<path d="M179.77 53.1225C182.169 53.1618 184.52 52.4421 186.486 51.0662C188.43 49.6954 189.403 47.639 189.406 44.8973C189.409 42.1556 188.357 40.0431 186.252 38.5598C184.154 37.0902 181.17 35.8126 177.298 34.7268C173.427 33.6411 170.62 32.6925 168.876 31.8809C167.085 31.0435 165.414 29.9702 163.908 28.6895C160.768 26.063 159.2 21.9901 159.203 16.471C159.178 14.3078 159.595 12.1623 160.427 10.1655C161.259 8.16866 162.49 6.3624 164.043 4.85699C167.254 1.61899 171.641 0 177.204 0C180.038 0.022443 182.858 0.417914 185.589 1.17621C188.498 1.97132 190.301 2.36887 190.997 2.36887C191.709 2.36887 192.338 1.86713 192.897 0.851312H193.72L194.251 16.1831H193.017C190.585 11.7771 188.042 8.24852 185.388 5.59726C182.734 2.946 179.855 1.61763 176.751 1.61215C173.637 1.61215 171.221 2.33323 169.505 3.77538C168.662 4.47281 167.99 5.35481 167.543 6.35318C167.095 7.35155 166.882 8.43954 166.922 9.53303C166.886 10.6479 167.152 11.7518 167.693 12.7273C168.234 13.7028 169.029 14.5134 169.994 15.0727C172.342 16.4893 174.887 17.5508 177.545 18.223C180.531 19.0455 182.493 19.602 183.43 19.8927C184.368 20.1833 185.53 20.5946 186.918 21.1265C188.112 21.5618 189.258 22.1214 190.335 22.7962C191.329 23.457 192.274 24.1896 193.161 24.9882C194.102 25.8157 194.886 26.8063 195.476 27.9123C196.847 30.3387 197.532 33.2175 197.532 36.5487C197.532 42.0158 195.826 46.4025 192.412 49.7091C188.999 53.0156 184.509 54.673 178.943 54.6812C175.613 54.6323 172.295 54.2506 169.04 53.542C165.32 52.7853 163.263 52.4069 162.871 52.4069C162.159 52.4069 161.473 53.165 160.815 54.6812H159.75L158.993 36.6227H160.28C162.442 40.9244 165.33 44.8202 168.818 48.138C172.273 51.461 175.923 53.1225 179.77 53.1225Z" fill="black"/>
<path d="M230.836 54.7141C222.389 54.7141 216.083 52.4248 211.918 47.8461C207.754 43.2674 205.666 36.6406 205.655 27.9657C205.655 19.2881 207.893 12.4585 212.371 7.47673C216.848 2.49499 223.185 0.00274174 231.383 0C239.576 0 245.76 2.36612 249.935 7.09836C254.111 11.8306 256.197 18.5479 256.195 27.2501C256.195 35.9524 254.083 42.7053 249.861 47.5088C245.639 52.3124 239.297 54.7141 230.836 54.7141ZM240.538 30.5073V24.8936C240.538 15.632 240.083 9.78801 239.173 7.36157C238.164 4.58145 236.726 2.86101 234.858 2.20025C233.615 1.76755 232.304 1.56275 230.988 1.59569C229.661 1.56514 228.338 1.76981 227.081 2.20025C225.985 2.61259 225.043 3.35561 224.388 4.32647C223.692 5.31576 223.119 6.38604 222.681 7.51374C222.155 9.04318 221.812 10.6292 221.657 12.2391C221.358 15.1618 221.209 19.48 221.209 25.1938V30.6595C221.209 36.8311 221.449 41.2179 221.928 43.8198C222.408 46.4217 223.003 48.2806 223.713 49.3965C225.279 51.8641 227.707 53.0978 230.997 53.0978C234.994 53.0978 237.588 51.4158 238.778 48.0517C239.968 44.6876 240.554 38.8394 240.538 30.5073Z" fill="black"/>
<path d="M293.821 40.2049L307.027 2.262H301.109V0.818481H312.719V2.262H309.149L290.864 54.6977H284.49L265.136 2.262H261.648V0.818481H286.46V2.262H281.072L293.821 40.2049Z" fill="black"/>
<path d="M109.042 69.3425C111.945 69.3425 113.911 71.1521 113.911 73.8335C113.911 76.5149 111.925 78.3286 109.029 78.3286H105.303V83.7696H103.872V69.3425H109.042ZM105.303 77.1112H108.704C111.04 77.1112 112.439 75.8775 112.439 73.8212C112.439 71.7649 111.049 70.5516 108.704 70.5516H105.303V77.1112Z" fill="white"/>
<path d="M119.558 83.7696H118.126V69.3425H123.473C126.438 69.3425 128.334 70.9876 128.334 73.5621C128.362 74.517 128.05 75.4509 127.455 76.1978C126.859 76.9447 126.018 77.4564 125.081 77.6418L128.782 83.7696H127.096L123.604 77.8597H119.562L119.558 83.7696ZM119.558 76.6506H123.37C125.579 76.6506 126.862 75.532 126.862 73.6032C126.862 71.6744 125.525 70.564 123.317 70.564H119.558V76.6506Z" fill="white"/>
<path d="M146.022 76.5603C146.022 81.1294 143.357 83.9958 139.117 83.9958C134.877 83.9958 132.225 81.117 132.225 76.5603C132.225 72.0035 134.89 69.1123 139.117 69.1123C143.345 69.1123 146.022 71.9911 146.022 76.5603ZM133.685 76.5603C133.685 80.3397 135.782 82.7292 139.105 82.7292C142.428 82.7292 144.538 80.3397 144.538 76.5603C144.538 72.7808 142.432 70.3913 139.105 70.3913C135.778 70.3913 133.697 72.7725 133.697 76.5603H133.685Z" fill="white"/>
<path d="M154.935 69C159.484 69 162.132 71.6485 162.132 76.2094C162.132 80.7703 159.492 83.427 154.935 83.427H150V69H154.935ZM151.452 82.185H154.853C158.587 82.185 160.672 80.0465 160.672 76.2176C160.672 72.3888 158.587 70.2379 154.853 70.2379H151.452V82.185Z" fill="white"/>
<path d="M155.963 69.0618V70.2955C158.998 70.7068 160.668 72.7631 160.668 76.2054C160.668 79.6476 158.998 81.708 155.963 82.1028V83.3613C159.886 82.9871 162.132 80.4085 162.132 76.193C162.132 71.9776 159.878 69.4237 155.963 69.0618Z" fill="#1D1D1B"/>
<path d="M167.411 78.6494C167.411 81.0676 169.056 82.7291 171.852 82.7291C174.649 82.7291 176.29 81.084 176.29 78.6494V69.3425H177.733V78.7316C177.733 81.8366 175.5 83.9957 171.852 83.9957C168.204 83.9957 166 81.8366 166 78.7316V69.3425H167.431L167.411 78.6494Z" fill="black"/>
<path d="M182.104 76.5191C182.104 71.9953 184.745 69.1165 188.87 69.1165C192.082 69.1165 194.627 71.107 195.039 73.9241H193.599C193.188 71.8472 191.243 70.3873 188.882 70.3873C185.662 70.3873 183.589 72.7767 183.589 76.5233C183.589 80.2698 185.645 82.7333 188.894 82.7333C191.317 82.7333 193.147 81.4995 193.599 79.5049H195.039C194.504 82.3138 192.16 84 188.87 84C184.737 83.9959 182.104 81.0883 182.104 76.5191Z" fill="black"/>
<path d="M202.602 83.7698V70.5807H197.601V69.3469H209.071V70.5807H204.053V83.7698H202.602Z" fill="black"/>
<path d="M213.035 83.7696V69.3425H214.466V83.7696H213.035Z" fill="black"/>
<path d="M232.648 76.5603C232.648 81.1294 229.983 83.9958 225.743 83.9958C221.503 83.9958 218.851 81.117 218.851 76.5603C218.851 72.0035 221.516 69.1123 225.743 69.1123C229.971 69.1123 232.648 71.9911 232.648 76.5603ZM220.311 76.5603C220.311 80.3397 222.408 82.7292 225.731 82.7292C229.054 82.7292 231.164 80.3397 231.164 76.5603C231.164 72.7808 229.058 70.3913 225.731 70.3913C222.404 70.3913 220.323 72.7725 220.323 76.5603H220.311Z" fill="black"/>
<path d="M237.032 83.7696V69.3425H238.451L247.355 81.3884H247.429V69.3425H248.848V83.7696H247.458L238.525 71.7114H238.451V83.7696H237.032Z" fill="black"/>
<path d="M92.6979 80.3767C94.9351 80.3767 96.7488 78.5631 96.7488 76.3258C96.7488 74.0886 94.9351 72.2749 92.6979 72.2749C90.4606 72.2749 88.647 74.0886 88.647 76.3258C88.647 78.5631 90.4606 80.3767 92.6979 80.3767Z" fill="white"/>
<path d="M82.8073 80.3767C85.0445 80.3767 86.8582 78.5631 86.8582 76.3258C86.8582 74.0886 85.0445 72.2749 82.8073 72.2749C80.57 72.2749 78.7563 74.0886 78.7563 76.3258C78.7563 78.5631 80.57 80.3767 82.8073 80.3767Z" fill="white"/>
<path d="M66.9862 73.1056C67.6265 73.1056 68.2524 73.2955 68.7848 73.6514C69.3171 74.0072 69.732 74.5129 69.9768 75.1046C70.2217 75.6962 70.2855 76.3472 70.1603 76.9752C70.0351 77.6031 69.7264 78.1798 69.2734 78.6323C68.8203 79.0848 68.2432 79.3927 67.6151 79.5172C66.987 79.6416 66.3361 79.5769 65.7447 79.3313C65.1534 79.0857 64.6482 78.6702 64.293 78.1374C63.9379 77.6046 63.7488 76.9784 63.7496 76.3381C63.7507 75.4804 64.0921 74.6582 64.699 74.0521C65.3059 73.446 66.1285 73.1056 66.9862 73.1056ZM66.9862 72.2831C66.1848 72.2823 65.4012 72.5192 64.7345 72.9638C64.0678 73.4084 63.5479 74.0408 63.2407 74.7809C62.9335 75.5211 62.8526 76.3357 63.0085 77.1218C63.1643 77.9078 63.5498 78.63 64.1162 79.197C64.6826 79.7639 65.4043 80.1501 66.1903 80.3068C66.9762 80.4634 67.7909 80.3834 68.5313 80.077C69.2718 79.7705 69.9047 79.2513 70.35 78.585C70.7953 77.9187 71.033 77.1354 71.033 76.334C71.033 75.2603 70.6068 74.2306 69.848 73.471C69.0891 72.7115 68.0598 72.2842 66.9862 72.2831Z" fill="white"/>
</svg>
