<svg width="206" height="210" viewBox="0 0 206 210" fill="none" xmlns="http://www.w3.org/2000/svg">
<path d="M166.146 114.633V111.072V106.324C166.146 99.7559 171.527 94.375 178.095 94.375H182.843H193.051C199.619 94.375 205 99.7559 205 106.324V159.975C205 163.694 201.993 166.701 198.274 166.701H173.11" stroke="black" stroke-width="2" stroke-miterlimit="10"/>
<path d="M104.821 11.6829C104.821 11.6829 109.885 34.8683 90.4189 29.8831" stroke="black" stroke-width="2" stroke-miterlimit="10" stroke-linecap="round" stroke-linejoin="round"/>
<path d="M95.0072 31.149V50.9319L82.5044 38.7456L85.6697 23.869C85.6697 23.869 80.0513 22.682 81.9505 17.1428C83.8496 11.6036 88.9932 17.1428 88.9932 17.1428L91.921 11.2079C104.819 16.9054 107.273 8.834 107.589 4.08612C107.747 2.42436 106.402 1 104.661 1H83.7705C82.3462 1 81.1592 2.02871 80.9218 3.37394C80.2887 6.93485 79.4974 13.9775 81.5548 19.7541" stroke="black" stroke-width="2" stroke-miterlimit="10" stroke-linecap="round" stroke-linejoin="round"/>
<path d="M123.89 49.2703L133.94 81.635L140.191 43.9685C140.824 39.9328 144.464 37.1632 148.5 37.4797C152.694 37.7962 155.701 41.3571 155.701 45.3137C155.701 46.105 155.543 46.9754 155.305 47.8459L145.414 91.4473C141.774 102.367 126.502 103.159 121.833 92.5551L111.783 61.2982L113.287 112.021" stroke="black" stroke-width="2" stroke-miterlimit="10" stroke-linecap="round" stroke-linejoin="round"/>
<path d="M95.957 38.271H112.337C114.632 38.271 116.769 38.9832 118.589 40.2493" stroke="black" stroke-width="2" stroke-miterlimit="10" stroke-linecap="round" stroke-linejoin="round"/>
<path d="M75.2266 114.553H99.0451H132.28C138.611 114.553 143.675 119.38 143.675 125.394L142.646 137.264L137.345 199.936L156.574 208.72H122.943C121.044 208.72 119.54 207.295 119.54 205.475V138.768H84.6432" stroke="black" stroke-width="2" stroke-miterlimit="10" stroke-linecap="round" stroke-linejoin="round"/>
<path d="M96.5107 114.553H129.746H132.278H164.722C171.052 114.553 176.117 119.38 176.117 125.394L170.736 198.67L189.015 208.72H156.571H155.384C153.96 208.72 152.773 207.928 152.219 206.741C152.061 206.346 151.982 205.95 151.982 205.475V138.768H142.644" stroke="black" stroke-width="2" stroke-miterlimit="10" stroke-linecap="round" stroke-linejoin="round"/>
<path d="M72.0613 112.101L72.2195 61.3774L56.8681 85.7498C55.3646 88.1237 55.5228 91.1307 57.2637 93.2673L83.1397 126.107C85.4345 129.035 86.3049 132.912 85.1179 136.473C84.1684 139.401 82.2692 140.825 80.3701 141.458C77.2839 142.408 73.9604 141.3 71.903 138.847L39.6966 101.339C36.2939 97.303 35.5817 91.6847 37.8765 86.9368L58.5298 44.5224C60.3498 40.7241 64.2273 38.271 68.5004 38.271H82.1901" stroke="black" stroke-width="2" stroke-miterlimit="10" stroke-linecap="round" stroke-linejoin="round"/>
<path d="M127.294 49.9826C122.546 49.9826 118.669 46.1052 118.669 41.3573V32.7319H135.92V41.3573C135.92 46.1052 132.042 49.9826 127.294 49.9826Z" stroke="black" stroke-width="2" stroke-miterlimit="10" stroke-linecap="round" stroke-linejoin="round"/>
<path d="M135.919 32.7317C136.236 32.6526 136.631 32.6526 136.948 32.6526C139.796 32.6526 142.17 34.9474 142.17 37.8752C142.17 40.8031 139.876 43.0979 136.948 43.0979C136.552 43.0979 136.156 43.0188 135.761 42.9397" stroke="black" stroke-width="2" stroke-miterlimit="10" stroke-linecap="round" stroke-linejoin="round"/>
<path d="M153.961 207.454H152.774" stroke="black" stroke-width="2" stroke-miterlimit="10"/>
<path d="M186.8 207.453H198.195V166.701H173.11" stroke="black" stroke-width="2" stroke-miterlimit="10"/>
<path d="M120.329 207.453H7.80469V166.701H119.538" stroke="black" stroke-width="2" stroke-miterlimit="10"/>
<path d="M84.0098 138.768H84.6428H119.54" stroke="black" stroke-width="2" stroke-miterlimit="10"/>
<path d="M151.983 138.768H142.646H142.487" stroke="black" stroke-width="2" stroke-miterlimit="10"/>
<path d="M71.7434 138.768H38.9039V106.324C38.9039 99.7559 33.523 94.375 26.9551 94.375H12.9488C6.38094 94.375 1 99.7559 1 106.324V159.975C1 163.694 4.00699 166.701 7.72616 166.701H119.46" stroke="black" stroke-width="2" stroke-miterlimit="10"/>
<path d="M155.623 46.5796H179.521C189.887 46.5796 198.196 54.9675 198.196 65.2546V94.3749" stroke="black" stroke-width="2" stroke-miterlimit="10"/>
<path d="M7.80469 94.3749V65.2546C7.80469 54.9675 16.1926 46.5796 26.4797 46.5796H57.4992" stroke="black" stroke-width="2" stroke-miterlimit="10"/>
<path d="M123.179 15.3228C122.625 16.3515 122.467 17.7758 122.546 19.1211C122.546 20.4663 122.783 21.7324 122.783 23.0776C122.783 24.4229 122.704 25.8472 122.15 26.8759" stroke="black" stroke-width="2" stroke-miterlimit="10" stroke-linecap="round" stroke-linejoin="round"/>
<path d="M128.322 15.3228C127.768 16.3515 127.609 17.7758 127.689 19.1211C127.689 20.4663 127.926 21.7324 127.926 23.0776C127.926 24.4229 127.847 25.8472 127.293 26.8759" stroke="black" stroke-width="2" stroke-miterlimit="10" stroke-linecap="round" stroke-linejoin="round"/>
<path d="M133.308 15.3228C132.754 16.3515 132.596 17.7758 132.675 19.1211C132.675 20.4663 132.912 21.7324 132.912 23.0776C132.991 24.4229 132.833 25.8472 132.279 26.8759" stroke="black" stroke-width="2" stroke-miterlimit="10" stroke-linecap="round" stroke-linejoin="round"/>
<path d="M119.539 200.332H138.61" stroke="black" stroke-width="2" stroke-miterlimit="10"/>
<path d="M152.774 200.332H173.349" stroke="black" stroke-width="2" stroke-miterlimit="10"/>
</svg>
