<svg width="213" height="206" viewBox="0 0 213 206" fill="none" xmlns="http://www.w3.org/2000/svg">
<path d="M176.584 156.801H50.3727C43.7154 156.801 38.3525 151.335 38.3525 144.548V47.7496C38.3525 40.9633 43.7154 35.4966 50.3727 35.4966H176.677C183.334 35.4966 188.697 40.9633 188.697 47.7496V144.454C188.697 151.24 183.242 156.801 176.584 156.801Z" stroke="black" stroke-width="2" stroke-miterlimit="10" stroke-linecap="round" stroke-linejoin="round"/>
<path d="M25.3159 96.1028L8.7651 155.294C6.91585 161.892 10.7068 168.773 17.2717 170.563L138.86 203.646C144.963 205.343 151.25 201.856 153.377 195.823L161.791 171.223" stroke="black" stroke-width="2" stroke-miterlimit="10" stroke-linecap="round" stroke-linejoin="round"/>
<path d="M38.2598 147.565L75.7996 112.314C79.2207 109.11 84.3986 109.11 87.9122 112.22L101.689 124.756L134.236 86.5831C137.75 82.5302 143.945 82.5302 147.366 86.5831L188.696 134.747" stroke="black" stroke-width="2" stroke-miterlimit="10" stroke-linecap="round" stroke-linejoin="round"/>
<path d="M75.1546 87.0533C82.8144 87.0533 89.024 80.7234 89.024 72.9152C89.024 65.1069 82.8144 58.7771 75.1546 58.7771C67.4947 58.7771 61.2852 65.1069 61.2852 72.9152C61.2852 80.7234 67.4947 87.0533 75.1546 87.0533Z" stroke="black" stroke-width="2" stroke-miterlimit="10" stroke-linecap="round" stroke-linejoin="round"/>
<path d="M1 26.8254C8.21209 22.961 13.9448 15.6092 16.9961 6.46655C20.0473 15.6092 25.78 22.961 32.9921 26.8254C25.78 30.6898 20.0473 38.0416 16.9961 47.1842C13.9448 38.0416 8.21209 30.6898 1 26.8254Z" stroke="black" stroke-width="2" stroke-miterlimit="10" stroke-linecap="round" stroke-linejoin="round"/>
<path d="M192.304 175.841C196.742 173.485 200.256 168.961 202.105 163.4C203.954 169.055 207.56 173.485 211.998 175.841C207.56 178.198 204.047 182.722 202.105 188.283C200.256 182.722 196.649 178.198 192.304 175.841Z" stroke="black" stroke-width="2" stroke-miterlimit="10" stroke-linecap="round" stroke-linejoin="round"/>
<path d="M39.7412 13.4415C44.1794 11.0852 47.693 6.56098 49.5423 1C51.3915 6.65523 54.9976 11.0852 59.4358 13.4415C54.9976 15.7979 51.484 20.322 49.5423 25.883C47.693 20.2278 44.1794 15.7979 39.7412 13.4415Z" stroke="black" stroke-width="2" stroke-miterlimit="10" stroke-linecap="round" stroke-linejoin="round"/>
</svg>
