<svg width="165" height="123" viewBox="0 0 165 123" fill="none" xmlns="http://www.w3.org/2000/svg">
<path d="M42.7669 13.264C71.2497 15.3852 92.3363 23.7941 107.553 33.1564C125.66 44.3667 135.285 57.0541 138.865 62.3432C139.097 62.6415 139.271 62.9261 139.445 63.2106C140.055 64.2064 139.88 65.4381 139.072 66.2749L111.215 92.8123C109.882 94.0686 107.809 94.1156 106.41 92.8694L99.2294 86.4108C98.1771 85.4904 96.5622 85.6478 95.7565 86.7277L91.331 92.5171" stroke="black" stroke-miterlimit="10"/>
<path d="M72.5021 29.0912C80.2374 31.9832 100.296 40.6302 111.39 56.0366C111.708 56.4771 111.685 57.0781 111.345 57.4816L98.5653 72.7855C98.0558 73.3908 97.0397 73.3283 96.6043 72.617L71.0584 30.8061C70.435 29.8676 71.4403 28.7144 72.5021 29.0912Z" stroke="black" stroke-miterlimit="10"/>
<path d="M32.4893 12.6117C32.1271 12.1 32.3065 11.3546 32.8755 11.0063L35.0806 9.65644C37.3567 8.26307 40.6292 9.53559 42.4145 12.4519L93.0113 95.1055C94.6224 97.7373 94.2492 100.802 92.2575 102.021C90.2659 103.24 87.3098 102.165 85.6987 99.5331C74.9298 82.0212 37.9278 21.0167 32.4893 12.6117Z" stroke="black" stroke-miterlimit="10"/>
<path d="M94.7137 26.0043L103.463 20.6485C104.743 19.8647 106.477 20.2212 107.217 21.4304L111.136 27.8322C111.92 29.1125 111.462 30.7615 110.125 31.5315L106.924 33.4909" stroke="black" stroke-miterlimit="10"/>
<path d="M138.363 62.1619L144.746 64.1219C145.248 64.3034 145.539 64.8587 145.358 65.3609L144.537 68.0143C144.356 68.5166 143.858 68.8214 143.284 68.6834L138.108 67.2562" stroke="black" stroke-miterlimit="10"/>
<path d="M145.484 66.8472C150.47 67.8041 155.658 70.447 154.895 76.3898C154.119 82.3898 145.413 84.5412 147.233 91.3478" stroke="black" stroke-miterlimit="10" stroke-linecap="round" stroke-linejoin="round"/>
<path d="M41.2558 50.81L27.7511 48.9562" stroke="black" stroke-miterlimit="10" stroke-linecap="round" stroke-linejoin="round"/>
<path d="M45.0502 59.2439L29.9438 67.0734" stroke="black" stroke-miterlimit="10" stroke-linecap="round" stroke-linejoin="round"/>
<path d="M49.08 66.9463L44.1089 80.5502" stroke="black" stroke-miterlimit="10" stroke-linecap="round" stroke-linejoin="round"/>
<path d="M26.2672 34.9519C21.7579 34.5343 15.5647 34.5607 12.6105 38.5204C9.13293 43.1428 12.1279 48.5944 14.8116 52.8187C14.9996 53.0459 13.1559 56.4236 13.0158 56.7538C10.6108 62.9686 9.9346 70.5698 13.5349 76.5309C17.5706 83.2034 25.8516 86.3481 33.1429 87.5563C33.1429 87.5563 42.4401 111.689 54.791 88.3364" stroke="black" stroke-miterlimit="10" stroke-linecap="round" stroke-linejoin="round"/>
</svg>
