<svg width="206" height="180" viewBox="0 0 206 180" fill="none" xmlns="http://www.w3.org/2000/svg">
<path d="M3.48926 141.195C3.48926 141.195 40.3617 98.7113 54.1488 97.509C67.9359 96.3066 88.6967 111.056 127.413 105.926C127.413 105.926 144.486 105.044 142.723 118.19C140.959 131.335 108.415 130.133 106.652 129.572C104.888 129.011 77.5548 125.003 70.2605 129.412" stroke="black" stroke-width="2" stroke-miterlimit="10" stroke-linecap="round" stroke-linejoin="round"/>
<path d="M142.803 112.98C142.803 112.98 168.453 94.3831 188.733 79.2334C192.26 76.5882 197.23 76.6683 200.516 79.554C201.638 80.596 202.52 81.7984 202.52 83.3214C202.52 84.9245 200.676 86.8483 199.875 88.0507C197.63 91.1768 195.146 94.2228 192.661 97.1886C185.446 105.846 177.751 114.102 169.736 122.037C157.071 134.622 143.284 149.211 124.767 151.616C104.968 154.181 80.1997 143.52 61.7634 154.1C49.1787 161.315 36.3535 178.869 36.3535 178.869" stroke="black" stroke-width="2" stroke-miterlimit="10" stroke-linecap="round" stroke-linejoin="round"/>
<path d="M74.8264 48.3727C70.0971 52.4607 63.925 54.9456 57.1918 54.9456C42.2825 54.9456 30.1787 42.8418 30.1787 28.0127C30.1787 13.1034 42.2825 1.07983 57.1918 1.07983C70.6582 1.07983 81.72 10.859 83.8041 23.7644" stroke="black" stroke-width="2" stroke-miterlimit="10" stroke-linecap="round" stroke-linejoin="round"/>
<path d="M55.6689 11.0999V33.8645L72.1814 26.0091" stroke="black" stroke-width="2" stroke-miterlimit="10" stroke-linecap="round" stroke-linejoin="round"/>
<path d="M17.7529 5.88916H30.2575" stroke="black" stroke-width="2" stroke-miterlimit="10" stroke-linecap="round" stroke-linejoin="round"/>
<path d="M1 16.8704H19.0354" stroke="black" stroke-width="2" stroke-miterlimit="10" stroke-linecap="round" stroke-linejoin="round"/>
<path d="M11.4199 49.9756H29.4554" stroke="black" stroke-width="2" stroke-miterlimit="10" stroke-linecap="round" stroke-linejoin="round"/>
<path d="M1 38.9138H19.0354" stroke="black" stroke-width="2" stroke-miterlimit="10" stroke-linecap="round" stroke-linejoin="round"/>
<path d="M7.7334 27.9321H17.3523" stroke="black" stroke-width="2" stroke-miterlimit="10" stroke-linecap="round" stroke-linejoin="round"/>
<path d="M117.868 74.0235C132.743 74.0235 144.801 61.9652 144.801 47.0906C144.801 32.216 132.743 20.1577 117.868 20.1577C102.994 20.1577 90.9355 32.216 90.9355 47.0906C90.9355 61.9652 102.994 74.0235 117.868 74.0235Z" stroke="black" stroke-width="2" stroke-miterlimit="10" stroke-linecap="round" stroke-linejoin="round"/>
<path d="M104.241 45.327L114.501 56.3086L134.3 37.7922" stroke="black" stroke-width="2" stroke-miterlimit="10" stroke-linecap="round" stroke-linejoin="round"/>
<path d="M127.809 83.8827C127.408 83.8025 127.168 83.8025 127.168 83.8025C126.366 84.3636 117.389 91.177 117.389 91.177L107.449 83.8025C107.449 83.8025 107.369 83.8025 107.369 83.7223C106.167 83.8025 95.2652 84.9247 95.2652 84.9247C95.2652 84.9247 91.6581 75.8669 90.8565 73.7828C88.6923 72.9011 79.9551 69.3742 79.9551 69.3742L81.2376 57.1101C81.2376 57.1101 81.2376 57.0299 81.2376 56.9498C80.5162 55.9879 74.0234 47.1706 74.0234 47.1706L81.5583 37.3914C81.5583 37.3914 81.5582 37.3913 81.6384 37.3112C81.2376 35.1469 79.6345 25.6082 79.6345 25.6082L90.7764 20.2377C90.7764 20.2377 90.8565 20.2377 90.9367 20.1575C91.4176 19.0353 95.5057 8.85531 95.5057 8.85531C95.5057 8.85531 107.369 10.1379 107.77 10.1379C109.052 9.17597 117.389 2.84351 117.389 2.84351L127.248 10.2982C127.248 10.2982 127.328 10.2982 127.328 10.3783C128.531 10.2982 139.432 9.17596 139.432 9.17596L143.921 20.7186L155.383 25.2074L154.261 37.5517C154.261 37.5517 154.261 37.6318 154.261 37.712C154.983 38.6739 161.636 47.4111 161.636 47.4111L154.181 57.2704C154.181 57.2704 154.181 57.2704 154.181 57.3505C154.261 58.3124 155.784 69.4543 155.784 69.4543L144.402 74.3439C144.402 74.3439 144.322 74.344 144.241 74.4241C143.76 75.5463 139.272 85.566 139.272 85.566C139.272 85.566 130.294 84.2835 127.809 83.8827Z" stroke="black" stroke-width="2" stroke-miterlimit="10" stroke-linecap="round" stroke-linejoin="round"/>
<path d="M160.752 48.6135C165.402 52.5412 171.493 54.8658 178.066 54.8658C192.976 54.8658 204.999 42.762 204.999 27.9329C204.999 13.0236 192.896 1 178.066 1C164.6 1 153.458 10.8594 151.454 23.6845" stroke="black" stroke-width="2" stroke-miterlimit="10" stroke-linecap="round" stroke-linejoin="round"/>
<path d="M173.578 15.2681V40.9184" stroke="black" stroke-width="2" stroke-miterlimit="10" stroke-linecap="round" stroke-linejoin="round"/>
<path d="M169.57 34.1052H181.915" stroke="black" stroke-width="2" stroke-miterlimit="10" stroke-linecap="round" stroke-linejoin="round"/>
<path d="M169.57 27.9331H175.342" stroke="black" stroke-width="2" stroke-miterlimit="10" stroke-linecap="round" stroke-linejoin="round"/>
<path d="M180.071 27.9329H173.578V14.8672H180.071C183.678 14.8672 186.564 17.7529 186.564 21.36C186.564 25.0472 183.678 27.9329 180.071 27.9329Z" stroke="black" stroke-width="2" stroke-miterlimit="10" stroke-linecap="round" stroke-linejoin="round"/>
</svg>
