<svg width="180" height="49" viewBox="0 0 180 49" fill="none" xmlns="http://www.w3.org/2000/svg"><path d="M18.499 23.117 26.09 1.3H22.69V.47h6.674v.83h-2.052L16.798 31.45h-3.665L2.005 1.31H0V.48h14.266v.83h-3.098l7.33 21.807z" fill="white"/><path d="M31.633.48H47.34v.96h-4.624v28.624h1.57c2.473 0 4.444-.757 5.912-2.27 1.467-1.513 2.959-3.84 4.473-6.98h.917l-.828 10.21H31.632v-.96h2.575V1.452h-2.575V.48z" fill="white"/><path d="m76.66 30.194-3.185-9.426h-8.638l-3.36 9.426h3.273v.83h-6.676v-.83h2.05L71.25.22h3.578l10.995 29.974h2.008v.83H73.564v-.83h3.097zM69.33 8.378l-4.093 11.428h7.898L69.33 8.378z" fill="white"/><path d="M103.362 30.544a6.55 6.55 0 0 0 3.862-1.182c1.117-.788 1.677-1.97 1.68-3.547 0-1.577-.604-2.791-1.815-3.644-1.207-.844-2.923-1.579-5.15-2.203-2.225-.624-3.84-1.17-4.842-1.636a12.738 12.738 0 0 1-2.856-1.834c-1.805-1.51-2.707-3.852-2.705-7.026a9.155 9.155 0 0 1 2.783-6.677C96.166.93 98.688 0 101.887 0c1.63.013 3.25.24 4.82.676 1.674.457 2.71.686 3.11.686.41 0 .772-.288 1.093-.873h.473l.305 8.815h-.71c-1.398-2.533-2.86-4.562-4.386-6.087-1.526-1.524-3.18-2.288-4.965-2.291-1.791 0-3.18.415-4.167 1.244a4.103 4.103 0 0 0-1.485 3.311 3.547 3.547 0 0 0 1.766 3.186 15.985 15.985 0 0 0 4.343 1.812 141.2 141.2 0 0 1 3.384.96c.54.167 1.207.403 2.005.71.687.25 1.345.571 1.965.96.57.38 1.114.8 1.624 1.26a5.98 5.98 0 0 1 1.333 1.68c.788 1.396 1.182 3.051 1.182 4.967 0 3.143-.98 5.665-2.944 7.566-1.962 1.903-4.543 2.856-7.743 2.86a28.746 28.746 0 0 1-5.694-.655c-2.14-.435-3.322-.652-3.547-.652-.41 0-.804.436-1.182 1.307h-.613l-.434-10.383h.74a24.02 24.02 0 0 0 4.91 6.621c1.985 1.91 4.084 2.866 6.296 2.866z" fill="white"/><path d="M132.723 31.46c-4.857 0-8.483-1.317-10.878-3.95-2.394-2.632-3.595-6.443-3.6-11.43 0-4.99 1.286-8.917 3.86-11.781 2.575-2.865 6.22-4.298 10.932-4.3 4.71 0 8.266 1.36 10.667 4.081 2.4 2.722 3.6 6.585 3.6 11.588 0 5.004-1.215 8.887-3.642 11.648-2.428 2.762-6.074 4.143-10.94 4.143zm5.578-13.92v-3.227c0-5.325-.26-8.685-.784-10.08-.58-1.599-1.407-2.588-2.48-2.968a6.285 6.285 0 0 0-2.226-.348 6.47 6.47 0 0 0-2.246.348 3.247 3.247 0 0 0-1.55 1.223 8.56 8.56 0 0 0-.98 1.832c-.303.88-.5 1.792-.59 2.717-.17 1.68-.257 4.163-.257 7.449v3.142c0 3.55.138 6.071.414 7.567.277 1.496.62 2.565 1.027 3.207.9 1.418 2.296 2.128 4.188 2.128 2.3 0 3.79-.967 4.474-2.902.683-1.934 1.02-5.296 1.01-10.087z" fill="white"/><path d="M168.94 23.117 176.533 1.3h-3.403V.47h6.676v.83h-2.053L167.24 31.45h-3.665L152.447 1.3h-2.006V.47h14.267v.83h-3.097l7.33 21.817z" fill="white"/><path d="M62.697 39.87c1.67 0 2.8 1.04 2.8 2.582s-1.142 2.585-2.807 2.585h-2.142v3.128h-.823V39.87h2.972zm-2.15 4.467h1.956c1.343 0 2.147-.71 2.147-1.892 0-1.182-.8-1.88-2.147-1.88h-1.955v3.772z" fill="white"/><path d="M68.74 48.165h-.822V39.87h3.074c1.705 0 2.795.946 2.795 2.426a2.322 2.322 0 0 1-1.87 2.346l2.128 3.523h-.97l-2.007-3.398h-2.325l-.002 3.398zm0-4.093h2.193c1.27 0 2.007-.643 2.007-1.752 0-1.11-.768-1.748-2.038-1.748h-2.161v3.5z" fill="white"/><path d="M83.96 44.02c0 2.627-1.532 4.275-3.97 4.275-2.438 0-3.963-1.655-3.963-4.275 0-2.62 1.533-4.282 3.964-4.282s3.97 1.655 3.97 4.282zm-7.093 0c0 2.173 1.206 3.547 3.116 3.547s3.124-1.374 3.124-3.547c0-2.173-1.21-3.547-3.124-3.547-1.913 0-3.11 1.37-3.11 3.547h-.006z" fill="white"/><path d="M89.67 39.673c2.615 0 4.138 1.523 4.138 4.146 0 2.62-1.518 4.148-4.138 4.148h-2.838v-8.295h2.838zm-2.003 7.581h1.955c2.147 0 3.346-1.23 3.346-3.43 0-2.202-1.199-3.439-3.346-3.439h-1.955v6.87z" fill="white"/><path d="M96.258 45.221c0 1.392.946 2.347 2.554 2.347 1.608 0 2.552-.946 2.552-2.346v-5.35h.83v5.399c0 1.784-1.284 3.025-3.382 3.025-2.097 0-3.365-1.241-3.365-3.026v-5.4h.823l-.012 5.351z" fill="white"/><path d="M104.703 43.997c0-2.602 1.518-4.257 3.89-4.257 1.847 0 3.31 1.145 3.547 2.764h-.828c-.236-1.194-1.355-2.033-2.712-2.033-1.85 0-3.043 1.375-3.043 3.53 0 2.153 1.182 3.57 3.05 3.57 1.393 0 2.445-.71 2.705-1.857h.828c-.307 1.615-1.655 2.585-3.547 2.585-2.376-.002-3.89-1.674-3.89-4.301z" fill="white"/><path d="M116.49 48.165v-7.583h-2.877v-.71h6.595v.71h-2.885v7.583h-.834z" fill="white"/><path d="M122.49 48.165V39.87h.823v8.295h-.823z" fill="white"/><path d="M133.765 44.02c0 2.627-1.532 4.275-3.97 4.275-2.438 0-3.963-1.655-3.963-4.275 0-2.62 1.532-4.282 3.963-4.282 2.43 0 3.97 1.655 3.97 4.282zm-7.094 0c0 2.173 1.207 3.547 3.118 3.547 1.91 0 3.124-1.374 3.124-3.547 0-2.173-1.21-3.547-3.124-3.547-1.913 0-3.11 1.37-3.11 3.547h-.007z" fill="white"/><path d="M136.287 48.165V39.87h.816l5.12 6.926h.042V39.87h.816v8.295h-.8l-5.135-6.933h-.042v6.933h-.816z" fill="white"/><path d="M53.298 46.215a2.33 2.33 0 1 0 0-4.659 2.33 2.33 0 0 0 0 4.659z" fill="white"/><path d="M47.61 46.215a2.33 2.33 0 1 0 0-4.659 2.33 2.33 0 0 0 0 4.659z" fill="white"/><path d="M38.517 42.034a1.86 1.86 0 1 1 0 3.72 1.86 1.86 0 0 1 0-3.72zm0-.473a2.33 2.33 0 1 0-.005 4.658 2.33 2.33 0 0 0 .005-4.657z" fill="white"/></svg>